<svg xmlns="http://www.w3.org/2000/svg" aria-hidden="true" focusable="false" class="icon icon-caret" width="8" height="13" viewBox="0 0 8 13">
<g opacity="0.6">
      <path d="M4.93509 1.08583C4.44566 0.596391 3.65213 0.596391 3.16269 1.08583L0.509308 3.73921C0.215647 4.03287 0.215647 4.50899 0.509308 4.80265C0.802969 5.09631 1.27909 5.09631 1.57275 4.80265L4.04889 2.32651L6.52504 4.80265C6.8187 5.09631 7.29482 5.09631 7.58848 4.80265C7.88214 4.50899 7.88214 4.03287 7.58848 3.73921L4.93509 1.08583Z" fill="#333030"/>
      <path d="M7.58848 9.81591L4.93509 12.4693C4.44566 12.9587 3.65213 12.9587 3.16269 12.4693L0.509308 9.81591C0.215647 9.52225 0.215647 9.04613 0.509308 8.75247C0.802969 8.45881 1.27909 8.45881 1.57275 8.75247L4.04889 11.2286L6.52504 8.75247C6.8187 8.45881 7.29482 8.45881 7.58848 8.75247C7.88214 9.04613 7.88214 9.52225 7.58848 9.81591Z" fill="#333030"/>
    </g></svg>