<svg aria-hidden="true" focusable="false" role="img" xmlns="http://www.w3.org/2000/svg" viewBox="0 0 24 24"><path fill="currentColor" d="M.654 24l1.027-6.141C-1.27 12.731.012 6.211 4.685 2.584a11.84 11.84 0 0 1 15.534.885c4.231 4.135 4.765 10.758 1.251 15.518a11.84 11.84 0 0 1-15.192 3.365m-2.845-1.164l3.139-.981A9.85 9.85 0 0 0 18.799 4.884a9.85 9.85 0 0 0-14.96 12.668m13.418-1.8l-.068-.135c-.189-.446-2.516-1.123-2.705-1.136l-.149.014c-.284.054-.595.311-1.204.839-.122.108-.284.135-.433.054-.798-.446-1.772-1.339-2.259-1.88-.527-.582-1.163-1.542-1.461-2.313-.054-.149 0-.311.108-.419.69-.622.987-.92 1.014-1.244.014-.189-.392-2.583-.811-2.813l-.122-.081c-.27-.176-.676-.433-1.123-.338a1.24 1.24 0 0 0-.311.122c-.298.189-1.041.703-1.379 1.366-.203.419-.298 4.22 2.543 7.425 2.813 3.178 6.289 3.313 6.803 3.205h.014l.041-.014c.703-.257 1.298-.92 1.528-1.204.419-.5.135-1.109-.027-1.447z"/></svg>